
<svg xmlns="http://www.w3.org/2000/svg" viewBox="0 0 64 64">
  <path d="M32 2 C15 2 10 20 10 32 C10 45 20 52 30 62 L32 64 L34 62 C44 52 54 45 54 32 C54 20 49 2 32 2 Z" fill="#2D5016"/>
  <path d="M32 10 C22 10 18 22 18 32 C18 40 24 46 30 52 L32 54 L34 52 C40 46 46 40 46 32 C46 22 42 10 32 10 Z" fill="#6B8E23"/>
  <path d="M32 15 L32 50" stroke="#ffffff" stroke-width="2" stroke-linecap="round"/>
  <path d="M32 40 L24 32" stroke="#ffffff" stroke-width="2" stroke-linecap="round"/>
  <path d="M32 30 L40 22" stroke="#ffffff" stroke-width="2" stroke-linecap="round"/>
</svg>
